<svg xmlns="http://www.w3.org/2000/svg" width="23669" height="4877" fill="none">
  <path fill="#FFFDEB" d="M2490.03 585.694c129.3 0 223.78 11.604 283.46 34.811 62.99 19.892 107.75 54.703 134.27 104.432 36.47 76.253 54.7 179.027 54.7 308.323V2957.8c0 348.11-125.98 656.43-377.94 924.97-251.97 265.22-573.55 397.84-964.76 397.84-218.81 0-412.75-48.08-581.83-144.22-152.509-82.88-258.599-157.48-318.274-223.78l-39.784-39.79c-116.036-122.66-174.054-227.09-174.054-313.29 0-89.52 58.018-193.95 174.054-313.3 116.036-119.35 218.811-179.03 308.324-179.03 89.514 0 188.974 54.71 298.374 164.11 109.41 109.41 227.1 164.11 353.08 164.11 129.3 0 235.39-43.1 318.27-129.3 82.89-86.2 124.33-200.57 124.33-343.13V1063.1c0-198.919 33.15-326.559 99.46-382.919 76.25-62.991 179.02-94.487 308.32-94.487ZM9336.38 2032.83h875.22c179.1 6.63 288.5 53.04 328.2 139.24 33.2 62.99 49.8 155.82 49.8 278.49v1094.05c0 106.09-46.4 207.21-139.3 303.35-278.5 288.43-696.19 432.65-1253.16 432.65-493.98 0-923.31-185.66-1288-556.98-364.68-374.62-547.02-825.51-547.02-1352.64 0-527.14 185.66-966.41 556.97-1317.84 371.31-354.735 808.94-532.104 1312.86-532.104 391.21 0 760.87 129.297 1108.95 387.891 89.5 66.306 134.3 140.903 134.3 223.783 0 79.57-38.1 172.4-114.4 278.49-129.3 175.71-247 263.56-353.1 263.56-62.96 0-164.07-44.75-303.32-134.27-139.24-92.82-305-139.24-497.29-139.24-251.97 0-475.75 89.51-671.35 268.54-195.61 175.71-293.41 407.78-293.41 696.22 0 285.11 99.46 528.79 298.38 731.02 198.92 198.92 424.36 298.38 676.32 298.38 182.35 0 346.45-29.84 492.33-89.51v-542.06h-392.87c-102.77 0-175.71-13.26-218.81-39.78-43.1-26.52-71.28-64.65-84.54-114.38-13.26-53.04-19.89-122.67-19.89-208.86 0-89.52 6.63-160.8 19.89-213.84 16.58-53.05 44.76-89.51 84.54-109.41 59.68-29.83 139.25-44.75 238.7-44.75ZM12882.7 585.694c129.3 0 223.8 11.604 283.4 34.811 63 19.892 107.8 54.703 134.3 104.432 36.5 76.253 54.7 179.027 54.7 308.323V2957.8c0 348.11-126 656.43-377.9 924.97-252 265.22-573.6 397.84-964.8 397.84-218.8 0-412.8-48.08-581.8-144.22-152.5-82.88-258.6-157.48-318.3-223.78l-39.8-39.79c-116-122.66-174-227.09-174-313.29 0-89.52 58-193.95 174-313.3 116-119.35 218.8-179.03 308.3-179.03s189 54.71 298.4 164.11c109.4 109.41 227.1 164.11 353.1 164.11 129.3 0 235.4-43.1 318.3-129.3 82.8-86.2 124.3-200.57 124.3-343.13V1063.1c0-198.919 33.1-326.559 99.4-382.919 76.3-62.991 179.1-94.487 308.4-94.487ZM15890 844.289 17232.7 3619.2c56.4 112.72 84.5 197.26 84.5 253.62 0 119.36-96.1 227.1-288.4 323.25-112.7 56.36-202.2 84.54-268.5 84.54-63 0-116.1-14.92-159.2-44.76-39.7-29.84-69.6-61.33-89.5-94.49-16.5-33.15-41.4-82.88-74.6-149.18l-258.6-537.09h-1377.5l-258.6 537.09c-33.1 66.3-59.6 114.37-79.5 144.21-16.6 29.84-46.4 61.33-89.5 94.49-39.8 29.83-92.9 44.75-159.2 44.75-63 0-150.8-28.18-263.5-84.54-192.3-92.83-288.5-198.91-288.5-318.27 0-56.36 28.2-140.9 84.6-253.62l1342.7-2779.884c36.4-76.252 91.1-137.586 164.1-184 76.2-46.414 155.8-69.622 238.7-69.622 179 0 311.6 86.199 397.8 258.595ZM15487.2 2037.8l-328.2 681.3h661.4l-333.2-681.3ZM19611.3 585.694c129.3 0 223.8 11.604 283.4 34.811 63 19.892 107.8 54.703 134.3 104.432 36.5 76.252 54.7 179.027 54.7 308.323V2957.8c0 348.11-126 656.43-377.9 924.97-252 265.22-573.6 397.84-964.8 397.84-218.8 0-412.8-48.08-581.8-144.22-152.5-82.88-258.6-157.48-318.3-223.78l-39.8-39.79c-116-122.66-174-227.1-174-313.29 0-89.52 58-193.95 174-313.3 116-119.35 218.8-179.03 308.3-179.03s189 54.71 298.4 164.11c109.4 109.41 227.1 164.11 353.1 164.11 129.3 0 235.4-43.1 318.3-129.3 82.8-86.2 124.3-200.57 124.3-343.13V1063.1c0-198.92 33.1-326.559 99.4-382.919 76.3-62.991 179.1-94.487 308.4-94.487ZM20535.4 3718.66c-86.2-106.09-129.3-200.57-129.3-283.46 0-86.2 71.3-198.92 213.8-338.16 82.9-79.57 170.8-119.35 263.6-119.35 92.8 0 222.1 82.88 387.9 248.65 46.4 56.36 112.7 111.06 198.9 164.11 86.2 49.73 165.8 74.59 238.7 74.59 308.3 0 462.5-125.98 462.5-377.94 0-76.26-43.1-139.25-129.3-188.98-82.9-53.04-187.3-91.17-313.3-114.38-126-23.2-261.9-59.67-407.8-109.4-145.9-53.05-281.8-114.38-407.8-184s-232-179.03-318.2-328.22c-82.9-152.5-124.4-334.84-124.4-547.02 0-291.75 107.8-545.37 323.3-760.866 218.8-218.81 515.5-328.215 890.1-328.215 199 0 379.6 26.522 542.1 79.567 165.8 49.73 280.1 101.117 343.1 154.162l124.4 94.486c102.7 96.144 154.1 177.366 154.1 243.676 0 66.31-39.8 157.48-119.3 273.51-112.8 165.77-228.8 248.65-348.1 248.65-69.7 0-155.9-33.15-258.6-99.46-10-6.63-29.9-23.21-59.7-49.73-26.5-26.52-51.4-48.07-74.6-64.65-69.6-43.1-159.1-64.65-268.6-64.65-106 0-195.6 26.53-268.5 79.57-69.6 49.73-104.4 121.01-104.4 213.84 0 89.51 41.4 162.45 124.3 218.81 86.2 56.36 192.3 94.49 318.3 114.38s263.5 51.39 412.7 94.48c149.2 39.79 286.8 89.52 412.8 149.19 126 59.68 230.4 164.11 313.3 313.3 86.2 145.87 129.3 326.56 129.3 542.05 0 215.5-43.1 406.13-129.3 571.89-86.2 162.45-198.9 288.44-338.2 377.95-268.5 175.71-555.3 263.57-860.3 263.57-155.8 0-303.4-18.24-442.6-54.71-139.2-39.78-252-87.85-338.2-144.21-175.7-106.09-298.3-208.87-368-308.33l-44.7-54.7Z"/>
  <path fill="#FFFDEB" fill-rule="evenodd" d="M5162.79 519.71c1038.6 0 1888.36 849.76 1888.36 1888.36 0 807.28-513.45 1500.38-1229.87 1769.11-2.66-97.64-64.62-7.07 1.31-192.97-68.87-66.61-129.26-52.15-229.94-32.12-4.38-36.07-1.99-70.9-5.63-105.06-3.13-29.36-17.93-45.16-26.27-78.68-40.3-161.96-166.31-1207.62-167.4-1351.06 36-19.42 78.39-12.64 92.06-61.59 13.02-46.65-17.09-82.74-28.57-120l65.76-3.91c-1.35-64.26 6.44-55 20.54-98.93l88.32-3.27-.17-160.9c-38.41-13.41-45.89 4.74-68.96-27.79-13.61-19.19-24.71-40.15-40.23-60.08-36.52 4.32-70.3 22.64-99.19 25.4-32.78 3.13-50.04-16.74-80.15-26.84l4.96-92.79-81.01-2.7-64.01-679.73-60.17 3.95-10.84 113.84c-5.47 95.71-15.49 192.94-22.85 290.55-11.31 149.92-13.54 222.89-27.72 272.56l-75.77 1.89-1.34 89.19c-71.29 60.75-102.1 9.32-184.95 6.51-41.87 92.84-41.36 74.38-64.87 81.7-39.75 12.38-34.32-42.7-35.3 172.35l90.45.7c20.19 36.95 21.07 37.66 16.11 91.69l66.52 10.51c-20.18 75.33-87.07 106.83 50.99 175.19l16.44 10.58c-19.89 293.93-95.54 831.05-138.15 1158.38-7.4 56.82-14.92 129.86-28.98 188.36-8.78 36.53-25.49 50.04-28.99 75.44-3.5 25.45-.73 69.14-4.14 102.15-40.85 4.94-74.49-19.96-132.01-12.08-38.43 5.26-76.54 23.19-104.52 39.53 16.6 39.86 47.4 73.53 29.59 134.76-14.08 48.41-17.53 6.59-20.66 75.21-730.6-261.22-1257.09-961.58-1257.09-1779.05 0-1038.6 849.76-1888.36 1888.36-1888.36h-.02Z" clip-rule="evenodd"/>
</svg>
