<svg xmlns="http://www.w3.org/2000/svg" width="23669" height="4877" fill="none">
  <path fill="#D0455B" d="M2490.03 585.548c129.3 0 223.78 11.603 283.46 34.81 62.99 19.892 107.75 54.703 134.27 104.432 36.47 76.253 54.7 179.027 54.7 308.32v1924.54c0 348.11-125.98 656.43-377.94 924.97-251.97 265.23-573.55 397.84-964.76 397.84-218.81 0-412.75-48.07-581.83-144.22-152.509-82.88-258.599-157.47-318.274-223.78l-39.784-39.78c-116.036-122.67-174.054-227.1-174.054-313.3 0-89.51 58.018-193.95 174.054-313.3 116.036-119.35 218.811-179.02 308.324-179.02 89.514 0 188.974 54.7 298.374 164.1 109.41 109.41 227.1 164.11 353.08 164.11 129.3 0 235.39-43.1 318.27-129.29 82.89-86.2 124.33-200.58 124.33-343.14V1062.95c0-198.916 33.15-326.556 99.46-382.916 76.25-62.991 179.02-94.486 308.32-94.486ZM9336.38 2032.68h875.22c179.1 6.63 288.5 53.04 328.2 139.24 33.2 62.99 49.8 155.82 49.8 278.49v1094.05c0 106.09-46.4 207.21-139.3 303.35-278.5 288.43-696.19 432.65-1253.16 432.65-493.98 0-923.31-185.66-1288-556.97-364.68-374.63-547.02-825.51-547.02-1352.65 0-527.13 185.66-966.41 556.97-1317.83 371.31-354.742 808.94-532.111 1312.86-532.111 391.21 0 760.87 129.297 1108.95 387.891 89.5 66.306 134.3 140.9 134.3 223.78 0 79.57-38.1 172.4-114.4 278.49-129.3 175.71-247 263.57-353.1 263.57-62.96 0-164.07-44.76-303.32-134.27-139.24-92.83-305-139.25-497.29-139.25-251.97 0-475.75 89.52-671.35 268.54-195.61 175.72-293.41 407.79-293.41 696.22 0 285.12 99.46 528.79 298.38 731.02 198.92 198.92 424.36 298.38 676.32 298.38 182.35 0 346.45-29.84 492.33-89.51v-542.05h-392.87c-102.77 0-175.71-13.27-218.81-39.79-43.1-26.52-71.28-64.65-84.54-114.38-13.26-53.04-19.89-122.66-19.89-208.86 0-89.51 6.63-160.79 19.89-213.84 16.58-53.04 44.76-89.51 84.54-109.4 59.68-29.84 139.25-44.76 238.7-44.76ZM12882.7 585.548c129.3 0 223.8 11.603 283.4 34.81 63 19.892 107.8 54.703 134.3 104.432 36.5 76.253 54.7 179.027 54.7 308.32v1924.54c0 348.11-126 656.43-377.9 924.97-252 265.23-573.6 397.84-964.8 397.84-218.8 0-412.8-48.07-581.8-144.22-152.5-82.88-258.6-157.47-318.3-223.78l-39.8-39.78c-116-122.67-174-227.1-174-313.3 0-89.51 58-193.95 174-313.3 116-119.35 218.8-179.02 308.3-179.02s189 54.7 298.4 164.1c109.4 109.41 227.1 164.11 353.1 164.11 129.3 0 235.4-43.1 318.3-129.29 82.8-86.2 124.3-200.58 124.3-343.14V1062.95c0-198.916 33.1-326.556 99.4-382.916 76.3-62.991 179.1-94.486 308.4-94.486ZM15890 844.142l1342.7 2774.918c56.4 112.72 84.5 197.26 84.5 253.62 0 119.35-96.1 227.1-288.4 323.24-112.7 56.36-202.2 84.54-268.5 84.54-63 0-116.1-14.92-159.2-44.76-39.7-29.83-69.6-61.33-89.5-94.48-16.5-33.16-41.4-82.89-74.6-149.19l-258.6-537.08h-1377.5l-258.6 537.08c-33.1 66.3-59.6 114.38-79.5 144.21-16.6 29.84-46.4 61.34-89.5 94.49-39.8 29.84-92.9 44.76-159.2 44.76-63 0-150.8-28.18-263.5-84.54-192.3-92.83-288.5-198.92-288.5-318.27 0-56.36 28.2-140.9 84.6-253.62l1342.7-2779.891c36.4-76.252 91.1-137.586 164.1-184 76.2-46.414 155.8-69.621 238.7-69.621 179 0 311.6 86.198 397.8 258.594Zm-402.8 1193.508-328.2 681.3h661.4l-333.2-681.3Z"/>
  <path fill="#17115C" d="M19611.3 585.548c129.3 0 223.8 11.603 283.4 34.811 63 19.891 107.8 54.702 134.3 104.432 36.5 76.252 54.7 179.027 54.7 308.319v1924.54c0 348.11-126 656.43-377.9 924.97-252 265.23-573.6 397.84-964.8 397.84-218.8 0-412.8-48.07-581.8-144.22-152.5-82.88-258.6-157.47-318.3-223.78l-39.8-39.78c-116-122.67-174-227.1-174-313.3 0-89.51 58-193.95 174-313.3 116-119.35 218.8-179.02 308.3-179.02s189 54.7 298.4 164.1c109.4 109.41 227.1 164.11 353.1 164.11 129.3 0 235.4-43.1 318.3-129.29 82.8-86.2 124.3-200.58 124.3-343.14V1062.95c0-198.916 33.1-326.556 99.4-382.916 76.3-62.991 179.1-94.486 308.4-94.486ZM20535.4 3718.52c-86.2-106.09-129.3-200.58-129.3-283.46 0-86.2 71.3-198.92 213.8-338.17 82.9-79.56 170.8-119.35 263.6-119.35 92.8 0 222.1 82.89 387.9 248.65 46.4 56.36 112.7 111.06 198.9 164.11 86.2 49.73 165.8 74.59 238.7 74.59 308.3 0 462.5-125.98 462.5-377.94 0-76.25-43.1-139.24-129.3-188.97-82.9-53.05-187.3-91.17-313.3-114.38-126-23.21-261.9-59.68-407.8-109.41-145.9-53.04-281.8-114.38-407.8-184s-232-179.02-318.2-328.21c-82.9-152.51-124.4-334.85-124.4-547.03 0-291.75 107.8-545.37 323.3-760.862 218.8-218.811 515.5-328.216 890.1-328.216 199 0 379.6 26.523 542.1 79.568 165.8 49.729 280.1 101.117 343.1 154.162l124.4 94.486c102.7 96.144 154.1 177.372 154.1 243.672 0 66.31-39.8 157.48-119.3 273.52-112.8 165.76-228.8 248.64-348.1 248.64-69.7 0-155.9-33.15-258.6-99.45-10-6.64-29.9-23.21-59.7-49.73-26.5-26.53-51.4-48.08-74.6-64.65-69.6-43.1-159.1-64.65-268.6-64.65-106 0-195.6 26.52-268.5 79.57-69.6 49.73-104.4 121-104.4 213.83 0 89.52 41.4 162.45 124.3 218.81 86.2 56.36 192.3 94.49 318.3 114.38s263.5 51.39 412.7 94.49c149.2 39.78 286.8 89.51 412.8 149.19 126 59.67 230.4 164.1 313.3 313.29 86.2 145.88 129.3 326.56 129.3 542.06 0 215.49-43.1 406.12-129.3 571.89-86.2 162.45-198.9 288.43-338.2 377.94-268.5 175.71-555.3 263.57-860.3 263.57-155.8 0-303.4-18.23-442.6-54.7-139.2-39.79-252-87.86-338.2-144.22-175.7-106.09-298.3-208.86-368-308.32l-44.7-54.7Z"/>
  <path fill="#D0455B" fill-rule="evenodd" d="M5162.79 519.563c1038.6 0 1888.36 849.757 1888.36 1888.357 0 807.29-513.45 1500.39-1229.87 1769.11-2.66-97.64-64.62-7.06 1.31-192.97-68.87-66.61-129.26-52.14-229.94-32.12-4.38-36.07-1.99-70.9-5.63-105.06-3.13-29.35-17.93-45.15-26.27-78.68-40.3-161.95-166.31-1207.61-167.4-1351.06 36-19.42 78.39-12.64 92.06-61.59 13.02-46.65-17.09-82.74-28.57-119.99l65.76-3.91c-1.35-64.27 6.44-55.01 20.54-98.94l88.32-3.26-.17-160.91c-38.41-13.41-45.89 4.75-68.96-27.79-13.61-19.19-24.71-40.15-40.23-60.08-36.52 4.32-70.3 22.64-99.19 25.4-32.78 3.13-50.04-16.73-80.15-26.83l4.96-92.8-81.01-2.7-64.01-679.73-60.17 3.95-10.84 113.85c-5.47 95.7-15.49 192.94-22.85 290.55-11.31 149.91-13.54 222.89-27.72 272.55l-75.77 1.89-1.34 89.19c-71.29 60.75-102.1 9.32-184.95 6.51-41.87 92.84-41.36 74.38-64.87 81.71-39.75 12.38-34.32-42.7-35.3 172.34l90.45.71c20.19 36.94 21.07 37.66 16.11 91.68l66.52 10.51c-20.18 75.34-87.07 106.84 50.99 175.19l16.44 10.58c-19.89 293.93-95.54 831.06-138.15 1158.38-7.4 56.83-14.92 129.86-28.98 188.37-8.78 36.52-25.49 50.03-28.99 75.44-3.5 25.44-.73 69.14-4.14 102.14-40.85 4.94-74.49-19.95-132.01-12.08-38.43 5.26-76.54 23.19-104.52 39.54 16.6 39.85 47.4 73.52 29.59 134.75-14.08 48.42-17.53 6.59-20.66 75.21-730.6-261.22-1257.09-961.58-1257.09-1779.05 0-1038.6 849.76-1888.357 1888.36-1888.357h-.02Z" clip-rule="evenodd"/>
</svg>
